<svg width="207" height="52" viewBox="0 0 207 52" fill="none" xmlns="http://www.w3.org/2000/svg">
<path d="M163.632 37.0135C162.785 36.4445 161.86 36.0651 160.935 35.572C160.357 35.2685 159.74 34.9651 159.24 34.5478C158.392 33.865 158.546 32.4994 159.471 31.8924C160.742 31.0579 162.862 31.5131 163.093 33.2201C163.093 33.258 163.132 33.296 163.17 33.296H165.097C165.135 33.296 165.174 33.258 165.174 33.2201C165.058 32.0442 164.596 31.0579 163.748 30.413C162.939 29.8061 162.014 29.5026 161.012 29.5026C155.926 29.5026 155.463 34.8133 158.199 36.4824C158.507 36.6721 161.205 37.9998 162.168 38.6067C163.131 39.1757 163.401 40.2378 163.016 41.0724C162.631 41.8311 161.667 42.3621 160.704 42.2863C159.625 42.2104 158.816 41.6414 158.507 40.7689C158.469 40.6172 158.43 40.3137 158.43 40.162C158.43 40.124 158.392 40.0861 158.353 40.0861H156.272C156.234 40.0861 156.195 40.124 156.195 40.162C156.195 41.6414 156.581 42.4759 157.583 43.2346C158.546 43.9554 159.586 44.2588 160.704 44.2588C163.555 44.2588 165.02 42.6656 165.328 41.0345C165.559 39.4412 165.097 37.9998 163.632 37.0135Z" fill="#8F9CA9"/>
<path d="M72.8067 29.8058H71.8819H70.88C70.8414 29.8058 70.8029 29.8438 70.8029 29.8438L69.0689 35.4201C69.0303 35.496 68.9533 35.496 68.9147 35.4201L67.1807 29.8438C67.1807 29.8058 67.1421 29.8058 67.1036 29.8058H66.1017H65.1769H63.9438C63.9053 29.8058 63.8667 29.8438 63.8667 29.8817V44.107C63.8667 44.1449 63.9053 44.1829 63.9438 44.1829H66.0247C66.0632 44.1829 66.1017 44.1449 66.1017 44.107V33.2958C66.1017 33.2199 66.2173 33.182 66.2559 33.2578L67.9899 38.8721L68.1055 39.2514C68.1055 39.2894 68.144 39.2894 68.1826 39.2894H69.801C69.8395 39.2894 69.8781 39.2514 69.8781 39.2514L69.9937 38.8721L71.7277 33.2578C71.7663 33.182 71.8819 33.182 71.8819 33.2958V44.107C71.8819 44.1449 71.9204 44.1829 71.9589 44.1829H74.0398C74.0783 44.1829 74.1169 44.1449 74.1169 44.107V29.8817C74.1169 29.8438 74.0783 29.8058 74.0398 29.8058H72.8067Z" fill="#8F9CA9"/>
<path d="M131.61 29.8058C131.572 29.8058 131.533 29.8438 131.533 29.8438L129.799 35.4201C129.761 35.496 129.683 35.496 129.645 35.4201L127.911 29.8438C127.911 29.8058 127.872 29.8058 127.834 29.8058H124.635C124.597 29.8058 124.558 29.8438 124.558 29.8817V44.107C124.558 44.1449 124.597 44.1829 124.635 44.1829H126.716C126.755 44.1829 126.793 44.1449 126.793 44.107V33.2958C126.793 33.2199 126.909 33.182 126.948 33.2578L128.682 38.8721L128.797 39.2514C128.797 39.2894 128.836 39.2894 128.874 39.2894H130.493C130.531 39.2894 130.57 39.2514 130.57 39.2514L130.685 38.8721L132.419 33.2578C132.458 33.182 132.574 33.182 132.574 33.2958V44.107C132.574 44.1449 132.612 44.1829 132.651 44.1829H134.731C134.77 44.1829 134.809 44.1449 134.809 44.107V29.8817C134.809 29.8438 134.77 29.8058 134.731 29.8058H131.61Z" fill="#8F9CA9"/>
<path d="M104.636 29.8058H100.744H98.6634H94.7329C94.6943 29.8058 94.6558 29.8438 94.6558 29.8817V31.6646C94.6558 31.7025 94.6943 31.7405 94.7329 31.7405H98.5478V44.107C98.5478 44.1449 98.5863 44.1829 98.6248 44.1829H100.706C100.744 44.1829 100.783 44.1449 100.783 44.107V31.7405H104.598C104.636 31.7405 104.675 31.7025 104.675 31.6646V29.8817C104.713 29.8438 104.675 29.8058 104.636 29.8058Z" fill="#8F9CA9"/>
<path d="M116.967 44.1829H118.855C118.894 44.1829 118.932 44.1449 118.932 44.0691L115.002 29.8059C115.002 29.768 114.963 29.768 114.925 29.768H114.193H112.921H112.189C112.15 29.768 112.112 29.8059 112.112 29.8059L108.181 44.0691C108.181 44.107 108.22 44.1829 108.258 44.1829H110.146C110.185 44.1829 110.224 44.1449 110.224 44.1449L111.38 39.9722C111.38 39.9343 111.418 39.9343 111.457 39.9343H115.657C115.695 39.9343 115.734 39.9722 115.734 39.9722L116.89 44.1449C116.89 44.1449 116.929 44.1829 116.967 44.1829ZM111.958 37.8858L113.499 32.3096C113.537 32.2337 113.615 32.2337 113.653 32.3096L115.194 37.8858C115.194 37.9238 115.156 37.9996 115.117 37.9996H112.073C111.996 37.9996 111.958 37.9238 111.958 37.8858Z" fill="#8F9CA9"/>
<path d="M149.413 44.1829H151.301C151.34 44.1829 151.378 44.1449 151.378 44.0691L147.448 29.8059C147.448 29.768 147.409 29.768 147.371 29.768H146.639H145.367H144.635C144.596 29.768 144.558 29.8059 144.558 29.8059L140.627 44.0691C140.627 44.107 140.666 44.1829 140.704 44.1829H142.592C142.631 44.1829 142.67 44.1449 142.67 44.1449L143.826 39.9722C143.826 39.9343 143.864 39.9343 143.903 39.9343H148.103C148.141 39.9343 148.18 39.9722 148.18 39.9722L149.336 44.1449C149.336 44.1449 149.375 44.1829 149.413 44.1829ZM144.404 37.8858L145.945 32.3096C145.984 32.2337 146.061 32.2337 146.099 32.3096L147.64 37.8858C147.64 37.9238 147.602 37.9996 147.563 37.9996H144.519C144.442 37.9996 144.404 37.9238 144.404 37.8858Z" fill="#8F9CA9"/>
<path d="M82.5944 42.0585V37.6582C82.5944 37.6203 82.6329 37.5823 82.6715 37.5823H88.259C88.2975 37.5823 88.336 37.5444 88.336 37.5065V35.7236C88.336 35.6856 88.2975 35.6477 88.259 35.6477H82.6715C82.6329 35.6477 82.5944 35.6098 82.5944 35.5718V31.8163C82.5944 31.7784 82.6329 31.7405 82.6715 31.7405H88.9911C89.0296 31.7405 89.0682 31.7025 89.0682 31.6646V29.8817C89.0682 29.8438 89.0296 29.8058 88.9911 29.8058H82.5944H80.4365C80.3979 29.8058 80.3594 29.8438 80.3594 29.8817V31.7405V35.6856V37.6203V42.1724V44.107C80.3594 44.1449 80.3979 44.1829 80.4365 44.1829H82.5944H89.2609C89.2994 44.1829 89.3379 44.1449 89.3379 44.107V42.2482C89.3379 42.2103 89.2994 42.1724 89.2609 42.1724H82.6329C82.6329 42.1344 82.5944 42.0965 82.5944 42.0585Z" fill="#8F9CA9"/>
<path d="M182.745 44.0311L175.501 36.672C175.462 36.634 175.462 36.5961 175.501 36.5582L182.013 29.8818C182.052 29.8439 182.013 29.768 181.975 29.768H179.316C179.277 29.768 179.277 29.768 179.277 29.8059L173.728 35.496C173.69 35.534 173.613 35.496 173.613 35.4581V29.9197C173.613 29.8818 173.574 29.8439 173.536 29.8439H171.416C171.378 29.8439 171.339 29.8818 171.339 29.9197V44.1449C171.339 44.1829 171.378 44.2208 171.416 44.2208H173.497C173.536 44.2208 173.574 44.1829 173.574 44.1449V37.8858C173.574 37.81 173.651 37.772 173.69 37.8479L179.932 44.2208L179.971 44.2587H182.63C182.745 44.1829 182.784 44.0691 182.745 44.0311Z" fill="#8F9CA9"/>
<path d="M49.5703 22.1433L36.931 31.3991L39.2816 25.9367L49.5703 22.1433Z" fill="#E17726" stroke="#E17726" stroke-width="0.385345" stroke-linecap="round" stroke-linejoin="round"/>
<path d="M20.3611 22.1433L32.9233 31.475L30.6883 25.9367L20.3611 22.1433Z" fill="#E27625" stroke="#E27625" stroke-width="0.385345" stroke-linecap="round" stroke-linejoin="round"/>
<path d="M45.0233 43.5759L41.6323 48.659L48.8768 50.6315L50.9192 43.6897L45.0233 43.5759Z" fill="#E27625" stroke="#E27625" stroke-width="0.385345" stroke-linecap="round" stroke-linejoin="round"/>
<path d="M19.051 43.6897L21.0933 50.6315L28.2993 48.659L24.9468 43.5759L19.051 43.6897Z" fill="#E27625" stroke="#E27625" stroke-width="0.385345" stroke-linecap="round" stroke-linejoin="round"/>
<path d="M27.9139 35.0028L25.9101 37.9996L33.039 38.303L32.8078 30.7163L27.9139 35.0028Z" fill="#E27625" stroke="#E27625" stroke-width="0.385345" stroke-linecap="round" stroke-linejoin="round"/>
<path d="M42.056 35.0028L37.085 30.6404L36.9309 38.303L44.0598 37.9996L42.056 35.0028Z" fill="#E27625" stroke="#E27625" stroke-width="0.385345" stroke-linecap="round" stroke-linejoin="round"/>
<path d="M28.2993 48.659L32.6151 46.6106L28.8773 43.7277L28.2993 48.659Z" fill="#E27625" stroke="#E27625" stroke-width="0.385345" stroke-linecap="round" stroke-linejoin="round"/>
<path d="M37.3549 46.6106L41.6323 48.659L41.0543 43.7277L37.3549 46.6106Z" fill="#E27625" stroke="#E27625" stroke-width="0.385345" stroke-linecap="round" stroke-linejoin="round"/>
<path d="M41.6324 48.659L37.355 46.6105L37.7018 49.3418L37.6633 50.5177L41.6324 48.659Z" fill="#D5BFB2" stroke="#D5BFB2" stroke-width="0.385345" stroke-linecap="round" stroke-linejoin="round"/>
<path d="M28.2993 48.659L32.3069 50.5177L32.2684 49.3418L32.6152 46.6105L28.2993 48.659Z" fill="#D5BFB2" stroke="#D5BFB2" stroke-width="0.385345" stroke-linecap="round" stroke-linejoin="round"/>
<path d="M32.384 41.9069L28.8003 40.8826L31.305 39.7445L32.384 41.9069Z" fill="#233447" stroke="#233447" stroke-width="0.385345" stroke-linecap="round" stroke-linejoin="round"/>
<path d="M37.5862 41.9069L38.6266 39.7445L41.1699 40.8826L37.5862 41.9069Z" fill="#233447" stroke="#233447" stroke-width="0.385345" stroke-linecap="round" stroke-linejoin="round"/>
<path d="M28.2993 48.659L28.9158 43.5757L24.9468 43.6895L28.2993 48.659Z" fill="#CC6228" stroke="#CC6228" stroke-width="0.385345" stroke-linecap="round" stroke-linejoin="round"/>
<path d="M41.0542 43.5757L41.6322 48.659L45.0232 43.6895L41.0542 43.5757Z" fill="#CC6228" stroke="#CC6228" stroke-width="0.385345" stroke-linecap="round" stroke-linejoin="round"/>
<path d="M44.0599 37.9997L36.931 38.3031L37.5861 41.9068L38.6265 39.7446L41.1698 40.8826L44.0599 37.9997Z" fill="#CC6228" stroke="#CC6228" stroke-width="0.385345" stroke-linecap="round" stroke-linejoin="round"/>
<path d="M28.8003 40.8825L31.305 39.7445L32.3839 41.9067L33.039 38.3031L25.9102 37.9996L28.8003 40.8825Z" fill="#CC6228" stroke="#CC6228" stroke-width="0.385345" stroke-linecap="round" stroke-linejoin="round"/>
<path d="M25.9102 37.9997L28.8773 43.7277L28.8002 40.8827L25.9102 37.9997Z" fill="#E27525" stroke="#E27525" stroke-width="0.385345" stroke-linecap="round" stroke-linejoin="round"/>
<path d="M41.1697 40.8827L41.0541 43.7277L44.0598 37.9997L41.1697 40.8827Z" fill="#E27525" stroke="#E27525" stroke-width="0.385345" stroke-linecap="round" stroke-linejoin="round"/>
<path d="M33.0391 38.303L32.3841 41.9068L33.1933 46.1933L33.386 40.5411L33.0391 38.303Z" fill="#E27525" stroke="#E27525" stroke-width="0.385345" stroke-linecap="round" stroke-linejoin="round"/>
<path d="M36.9308 38.303L36.584 40.5411L36.7382 46.1933L37.5859 41.9068L36.9308 38.303Z" fill="#E27525" stroke="#E27525" stroke-width="0.385345" stroke-linecap="round" stroke-linejoin="round"/>
<path d="M37.5863 41.9068L36.7386 46.1933L37.3551 46.6105L41.0544 43.7276L41.17 40.8826L37.5863 41.9068Z" fill="#F5841F" stroke="#F5841F" stroke-width="0.385345" stroke-linecap="round" stroke-linejoin="round"/>
<path d="M28.8003 40.8826L28.8774 43.7276L32.6152 46.6105L33.1932 46.1933L32.384 41.9068L28.8003 40.8826Z" fill="#F5841F" stroke="#F5841F" stroke-width="0.385345" stroke-linecap="round" stroke-linejoin="round"/>
<path d="M37.6632 50.5177L37.7017 49.3418L37.3549 49.0762H32.5767L32.2684 49.3418L32.3069 50.5177L28.2993 48.659L29.6866 49.797L32.5381 51.7315H37.3935L40.245 49.797L41.6322 48.659L37.6632 50.5177Z" fill="#C0AC9D" stroke="#C0AC9D" stroke-width="0.385345" stroke-linecap="round" stroke-linejoin="round"/>
<path d="M37.3551 46.6106L36.7386 46.1934H33.1934L32.6154 46.6106L32.2686 49.3419L32.5769 49.0763H37.3551L37.7019 49.3419L37.3551 46.6106Z" fill="#8F9CA9" stroke="#8F9CA9" stroke-width="0.385345" stroke-linecap="round" stroke-linejoin="round"/>
<path d="M50.1099 32.0061L51.1889 26.8851L49.5704 22.1434L37.355 31.0957L42.0562 35.0029L48.6841 36.8995L50.1485 35.2305L49.5319 34.7753L50.5338 33.8649L49.7631 33.2579L50.765 32.4992L50.1099 32.0061Z" fill="#763E1A" stroke="#763E1A" stroke-width="0.385345" stroke-linecap="round" stroke-linejoin="round"/>
<path d="M18.7813 26.8851L19.8602 32.0061L19.1666 32.4992L20.1685 33.2579L19.3978 33.8649L20.4383 34.7753L19.7832 35.2305L21.2475 36.8995L27.9139 35.0029L32.6151 31.0957L20.3612 22.1434L18.7813 26.8851Z" fill="#763E1A" stroke="#763E1A" stroke-width="0.385345" stroke-linecap="round" stroke-linejoin="round"/>
<path d="M48.684 36.8996L42.0561 35.0029L44.0599 37.9996L41.0542 43.7277L45.0233 43.6897H50.919L48.684 36.8996Z" fill="#F5841F" stroke="#F5841F" stroke-width="0.385345" stroke-linecap="round" stroke-linejoin="round"/>
<path d="M27.9139 35.0029L21.2475 36.8996L19.0511 43.6897H24.9468L28.8773 43.7277L25.9102 37.9996L27.9139 35.0029Z" fill="#F5841F" stroke="#F5841F" stroke-width="0.385345" stroke-linecap="round" stroke-linejoin="round"/>
<path d="M36.9311 38.303L37.3549 31.0957L39.2816 25.9367H30.6885L32.6152 31.0957L33.0391 38.303L33.1932 40.579V46.1932H36.7384V40.579L36.9311 38.303Z" fill="#F5841F" stroke="#F5841F" stroke-width="0.385345" stroke-linecap="round" stroke-linejoin="round"/>
</svg>
