<svg width="208" height="50" viewBox="0 0 208 50" fill="none" xmlns="http://www.w3.org/2000/svg">
<path d="M66.2448 30.4983C60.8159 30.4983 56.574 34.5553 56.574 39.9864C56.574 45.4175 60.7087 49.4397 66.2448 49.4397C71.7809 49.4397 75.9876 45.348 75.9876 39.9516C75.9876 34.59 71.8528 30.4983 66.2448 30.4983ZM66.2801 45.5243C63.1885 45.5243 60.9231 43.1606 60.9231 39.9864C60.9231 36.776 63.1519 34.4137 66.2435 34.4137C69.3717 34.4137 71.6358 36.8121 71.6358 39.9864C71.6358 43.1606 69.3717 45.5243 66.2801 45.5243ZM77.1733 34.6247H79.8701V49.0872H84.1839V30.8508H77.1733V34.6247ZM45.7174 34.4137C47.9829 34.4137 49.7803 35.7892 50.4627 37.835H55.0288C54.2013 33.4616 50.5346 30.4983 45.7541 30.4983C40.3251 30.4983 36.0832 34.5553 36.0832 39.9864C36.0832 45.4175 40.218 49.4397 45.7541 49.4397C50.4274 49.4397 54.1661 46.4764 54.9936 42.0669H50.464C49.817 44.1128 48.0195 45.5243 45.7541 45.5243C42.6259 45.5243 40.4337 43.1606 40.4337 39.9864C40.4323 36.7774 42.5892 34.4137 45.7174 34.4137ZM159.139 38.2236L155.976 37.7656C154.466 37.5546 153.387 37.0605 153.387 35.896C153.387 34.626 154.79 33.9917 156.695 33.9917C158.78 33.9917 160.11 34.8731 160.398 36.3193H164.568C164.1 32.651 161.224 30.4996 156.803 30.4996C152.237 30.4996 149.217 32.7925 149.217 36.0376C149.217 39.141 151.195 40.9412 155.185 41.5047L158.348 41.9628C159.895 42.1738 160.757 42.7747 160.757 43.9031C160.757 45.3494 159.248 45.949 157.163 45.949C154.609 45.949 153.172 44.926 152.956 43.3743H148.714C149.11 46.9372 151.949 49.441 157.126 49.441C161.836 49.441 164.963 47.3244 164.963 43.6908C164.963 40.4457 162.697 38.7524 159.139 38.2236ZM82.027 23.3378C80.4453 23.3378 79.2583 24.4663 79.2583 26.018C79.2583 27.5697 80.4439 28.6982 82.027 28.6982C83.6087 28.6982 84.7957 27.5697 84.7957 26.018C84.7944 24.4663 83.6087 23.3378 82.027 23.3378ZM145.335 37.0939C145.335 33.1437 142.89 30.4983 137.714 30.4983C132.825 30.4983 130.092 32.9327 129.553 36.6719H133.831C134.047 35.2256 135.197 34.0264 137.642 34.0264C139.835 34.0264 140.914 34.9786 140.914 36.1431C140.914 37.6601 138.936 38.0473 136.491 38.2944C133.184 38.6469 129.086 39.7754 129.086 44.0086C129.086 47.2897 131.567 49.405 135.521 49.405C138.613 49.405 140.554 48.135 141.526 46.1239C141.669 47.9227 143.035 49.0872 144.941 49.0872H147.458V45.3133H145.336V37.0939H145.335ZM141.091 41.6797C141.091 44.1141 138.934 45.9129 136.31 45.9129C134.691 45.9129 133.325 45.2425 133.325 43.8323C133.325 42.0335 135.519 41.5394 137.532 41.3284C139.473 41.1522 140.552 40.7288 141.091 39.9169V41.6797ZM118.191 30.4983C115.782 30.4983 113.769 31.4865 112.331 33.1437V23.1616H108.017V49.0885H112.259V46.6901C113.697 48.4181 115.747 49.441 118.191 49.441C123.368 49.441 127.287 45.4201 127.287 39.9877C127.287 34.5553 123.297 30.4983 118.191 30.4983ZM117.544 45.5243C114.453 45.5243 112.187 43.1606 112.187 39.9864C112.187 36.8121 114.488 34.4137 117.58 34.4137C120.708 34.4137 122.9 36.7774 122.9 39.9864C122.901 43.162 120.636 45.5243 117.544 45.5243ZM97.7006 30.4983C94.8966 30.4983 93.0626 31.6267 91.9841 33.2145V30.8508H87.7055V49.0872H92.0194V39.1758C92.0194 36.3888 93.8168 34.4137 96.477 34.4137C98.9582 34.4137 100.503 36.1417 100.503 38.6469V49.0885H104.817V38.3305C104.818 33.7433 102.411 30.4983 97.7006 30.4983ZM185.525 39.3868C185.525 34.1667 181.643 30.4983 176.43 30.4983C170.894 30.4983 166.831 34.59 166.831 39.9864C166.831 45.6658 171.181 49.4397 176.502 49.4397C180.996 49.4397 184.519 46.829 185.417 43.1259H180.923C180.276 44.7484 178.694 45.6658 176.572 45.6658C173.803 45.6658 171.718 43.9725 171.252 41.0093H185.524V39.3868H185.525ZM171.505 37.9766C172.189 35.4366 174.13 34.2027 176.359 34.2027C178.804 34.2027 180.673 35.5782 181.104 37.9766H171.505Z" fill="#0052FF"/>
</svg>
